# xmcd
#
# Track frame offsets: 
#        150
#        50420
#        102380
#        147485
#        202972
#        247120
#        276640
#        315190
#
# Disc length: 4679 seconds
#
# Revision: 0
# Processed by: cddbd v1.5.2PL0 Copyright (c) Steve Scherf et al.
# Submitted via: ExactAudioCopy v0.99pb3
#
DISCID=78124508
DTITLE=Thione Seck and Raam Daan - Live XV Anniversary
DYEAR=1900
DGENRE=Ethnic
TTITLE0=Dieylo
TTITLE1=Talibi
TTITLE2=Bour
TTITLE3=Mathiou
TTITLE4=Khalel
TTITLE5=Khare Bi
TTITLE6=Yenn Bi
TTITLE7=Gaadaay
EXTD=
EXTT0=
EXTT1=
EXTT2=
EXTT3=
EXTT4=
EXTT5=
EXTT6=
EXTT7=
PLAYORDER=
